<?xml version="1.0" standalone="no"?><!DOCTYPE svg PUBLIC "-//W3C//DTD SVG 1.1//EN" "http://www.w3.org/Graphics/SVG/1.1/DTD/svg11.dtd"><svg t="1506666506113" class="icon" style="" viewBox="0 0 1024 1024" version="1.1" xmlns="http://www.w3.org/2000/svg" p-id="991" xmlns:xlink="http://www.w3.org/1999/xlink" width="32" height="32"><defs><style type="text/css"></style></defs><path d="M866.5 476 548 476 548 165.5c0-19.9-16.1-36-36-36l0 0c-19.9 0-36 16.1-36 36L476 476 164.5 476c-19.9 0-36 16.1-36 36l0 0c0 19.9 16.1 36 36 36L476 548l0 311.5c0 19.9 16.1 36 36 36l0 0c19.9 0 36-16.1 36-36L548 548l318.5 0c19.9 0 36-16.1 36-36l0 0C902.5 492.1 886.4 476 866.5 476z" p-id="992" fill="#ffffff"></path></svg>